<?xml version="1.0" encoding="utf-8"?> <!-- Generator: Adobe Illustrator 16.0.4, SVG Export Plug-In . SVG Version: 6.00 Build 0) --> <!DOCTYPE svg PUBLIC "-//W3C//DTD SVG 1.1//EN" "http://www.w3.org/Graphics/SVG/1.1/DTD/svg11.dtd"> <svg version="1.1" id="Layer_1" xmlns="http://www.w3.org/2000/svg" xmlns:xlink="http://www.w3.org/1999/xlink" x="0px" y="0px" width="177px" height="29px" viewBox="0 192 177 29" enable-background="new 0 192 177 29" xml:space="preserve"> <title>marionette</title> <desc>Created with Sketch.</desc> <g> <g> <path id="Shape_13_" fill="#939598" d="M167.843,194.876c-4.491,0-8.13,3.544-8.13,7.923c0,1.753,0.59,3.368,1.58,4.68 c0.085,0.011,0.18,0.021,0.264,0.021c0.393,0,0.797-0.05,0.9-0.748l0.95-6.543h3.144l-0.938,6.542 c-0.25,1.734-1.154,2.471-2.15,2.713c1.268,0.79,2.766,1.254,4.378,1.254c4.49,0,8.13-3.547,8.13-7.922 c0.004-4.378-3.636-7.922-8.127-7.922L167.843,194.876z M163.473,199.561l0.287-2.006h3.234l-0.286,2.008h-3.233L163.473,199.561z M173.02,204.491c0,1.678-1.42,2.62-3.494,2.62c-1.188,0-2.151-0.307-2.936-0.777l0.562-1.93c0.523,0.406,1.384,0.686,2.061,0.686 c0.418,0,0.641-0.105,0.641-0.242c0-0.472-2.518,0.025-2.518-2.185c0-1.69,1.475-2.617,3.547-2.617 c1.004,0,1.801,0.215,2.518,0.545l-0.547,1.843c-0.431-0.201-1.123-0.404-1.787-0.404c-0.17,0-0.61,0.014-0.61,0.217 C170.452,202.751,173.02,202.243,173.02,204.491L173.02,204.491z"/> <g> <path fill="#CF251F" d="M37.636,220.15l0.11-13.641h-0.083l-5.06,13.641h-3.3L24.38,206.51h-0.083l0.11,13.641h-4.428v-19.276 h6.69l4.434,12.36h0.11l4.24-12.36h6.8v19.276h-4.618H37.636z M44.73,208.441c0.808-0.762,1.747-1.332,2.82-1.715 c1.072-0.381,2.168-0.569,3.287-0.569c1.154,0,2.13,0.14,2.928,0.42c0.798,0.282,1.444,0.72,1.94,1.307 c0.494,0.591,0.856,1.334,1.085,2.233c0.23,0.898,0.344,1.966,0.344,3.199v6.834H53.01v-1.439h-0.083 c-0.348,0.562-0.875,1-1.58,1.307c-0.707,0.308-1.473,0.463-2.297,0.463c-0.55,0-1.118-0.075-1.705-0.221 c-0.587-0.146-1.123-0.38-1.61-0.708c-0.485-0.325-0.884-0.764-1.196-1.307c-0.312-0.542-0.468-1.218-0.468-2.013 c0-0.98,0.27-1.771,0.812-2.371c0.54-0.6,1.236-1.06,2.09-1.387c0.853-0.328,1.8-0.545,2.846-0.654 c1.045-0.107,2.063-0.162,3.053-0.162v-0.221c0-0.67-0.24-1.164-0.715-1.481c-0.477-0.317-1.064-0.476-1.76-0.476 c-0.643,0-1.262,0.138-1.857,0.406c-0.595,0.272-1.104,0.6-1.525,0.98L44.73,208.441L44.73,208.441z M53.008,214.244h-0.577 c-0.493,0-0.994,0.02-1.498,0.068c-0.504,0.045-0.952,0.131-1.347,0.258c-0.395,0.128-0.72,0.312-0.977,0.56 c-0.257,0.243-0.385,0.565-0.385,0.966c0,0.256,0.06,0.473,0.18,0.652c0.118,0.184,0.27,0.327,0.453,0.436 c0.184,0.107,0.394,0.188,0.632,0.23c0.238,0.045,0.468,0.066,0.69,0.066c0.915,0,1.615-0.248,2.103-0.748 c0.485-0.496,0.73-1.174,0.73-2.026l-0.002-0.46L53.008,214.244z M68.325,210.268c-0.2-0.056-0.398-0.09-0.59-0.109 c-0.193-0.018-0.382-0.025-0.565-0.025c-0.605,0-1.113,0.11-1.526,0.326c-0.412,0.217-0.743,0.479-0.99,0.785 c-0.247,0.311-0.427,0.643-0.536,1.006c-0.11,0.363-0.164,0.68-0.164,0.95v6.954h-4.512v-13.545h4.346v1.961h0.055 c0.35-0.693,0.843-1.262,1.485-1.698c0.642-0.438,1.384-0.66,2.23-0.66c0.18,0,0.36,0.011,0.535,0.027 c0.172,0.02,0.315,0.044,0.426,0.079L68.325,210.268L68.325,210.268z M75.228,202.264c0,0.346-0.067,0.668-0.207,0.967 c-0.135,0.303-0.318,0.561-0.548,0.778c-0.23,0.216-0.504,0.39-0.826,0.517c-0.32,0.127-0.655,0.19-1.003,0.19 c-0.732,0-1.347-0.239-1.842-0.723c-0.494-0.479-0.743-1.056-0.743-1.729c0-0.326,0.064-0.641,0.194-0.938 c0.128-0.3,0.313-0.558,0.55-0.775c0.24-0.22,0.514-0.395,0.826-0.53c0.312-0.138,0.65-0.205,1.017-0.205 c0.348,0,0.683,0.062,1.003,0.19c0.322,0.127,0.596,0.3,0.826,0.517c0.23,0.219,0.413,0.477,0.55,0.775 c0.14,0.298,0.206,0.62,0.206,0.967H75.228z M70.388,220.15v-13.558h4.51v13.56h-4.51V220.15z M91.895,213.32 c0,1.105-0.203,2.109-0.606,3.007c-0.404,0.899-0.953,1.659-1.649,2.288c-0.698,0.627-1.506,1.113-2.421,1.457 c-0.917,0.346-1.898,0.518-2.943,0.518c-1.027,0-2.003-0.172-2.93-0.518c-0.925-0.344-1.732-0.83-2.42-1.457 s-1.234-1.387-1.636-2.288c-0.405-0.897-0.607-1.9-0.607-3.007s0.2-2.106,0.606-2.997c0.4-0.89,0.947-1.64,1.634-2.261 c0.69-0.617,1.496-1.09,2.422-1.414c0.926-0.328,1.902-0.49,2.93-0.49c1.044,0,2.025,0.162,2.942,0.49 c0.915,0.324,1.724,0.798,2.421,1.414c0.695,0.621,1.245,1.373,1.649,2.261c0.403,0.888,0.606,1.888,0.606,2.997H91.895z M87.548,213.32c0-0.437-0.073-0.864-0.22-1.28c-0.146-0.418-0.357-0.785-0.632-1.103c-0.275-0.316-0.615-0.576-1.018-0.776 c-0.403-0.198-0.872-0.298-1.402-0.298c-0.532,0-1,0.1-1.403,0.3s-0.738,0.46-1.004,0.774c-0.266,0.318-0.468,0.686-0.606,1.103 c-0.137,0.416-0.207,0.844-0.207,1.28c0,0.435,0.07,0.859,0.207,1.277c0.138,0.418,0.345,0.797,0.618,1.133 c0.274,0.336,0.615,0.602,1.02,0.804c0.4,0.2,0.87,0.3,1.4,0.3c0.533,0,1-0.1,1.402-0.3c0.403-0.2,0.743-0.468,1.018-0.804 c0.276-0.336,0.482-0.715,0.62-1.133C87.478,214.182,87.547,213.754,87.548,213.32L87.548,213.32z M102.098,220.15v-7.404 c0-0.383-0.033-0.745-0.098-1.09c-0.064-0.346-0.17-0.648-0.316-0.913c-0.146-0.263-0.354-0.47-0.619-0.626 c-0.267-0.153-0.601-0.23-1.002-0.23c-0.403,0-0.756,0.077-1.061,0.23c-0.303,0.154-0.555,0.367-0.756,0.64 c-0.202,0.274-0.354,0.587-0.454,0.94c-0.103,0.353-0.149,0.722-0.149,1.102v7.35h-4.537v-13.56h4.373v1.88h0.054 c0.163-0.289,0.382-0.574,0.647-0.855c0.264-0.282,0.576-0.523,0.934-0.723s0.748-0.363,1.171-0.49 c0.42-0.125,0.87-0.19,1.348-0.19c0.915,0,1.694,0.162,2.339,0.49c0.641,0.327,1.159,0.75,1.553,1.266 c0.396,0.517,0.68,1.112,0.854,1.784c0.173,0.672,0.261,1.343,0.261,2.014v8.387H102.098L102.098,220.15z M122.529,213.534v0.547 c0,0.183-0.008,0.353-0.024,0.519h-9.93c0.036,0.383,0.149,0.725,0.344,1.033c0.19,0.311,0.44,0.577,0.743,0.805 c0.302,0.229,0.64,0.405,1.018,0.53c0.375,0.13,0.766,0.19,1.168,0.19c0.717,0,1.32-0.131,1.817-0.393 c0.494-0.265,0.897-0.604,1.21-1.021l3.135,1.962c-0.644,0.925-1.49,1.636-2.545,2.136c-1.053,0.5-2.277,0.748-3.67,0.748 c-1.025,0-1.998-0.157-2.915-0.476c-0.917-0.316-1.72-0.778-2.405-1.387c-0.688-0.607-1.228-1.356-1.623-2.248 c-0.395-0.89-0.59-1.905-0.59-3.049c0-1.106,0.19-2.111,0.576-3.008c0.385-0.898,0.908-1.662,1.568-2.288s1.439-1.11,2.336-1.456 c0.9-0.346,1.869-0.519,2.915-0.519c1.01,0,1.936,0.167,2.78,0.503c0.842,0.337,1.566,0.822,2.17,1.458 c0.606,0.637,1.078,1.407,1.418,2.315c0.336,0.902,0.506,1.939,0.506,3.1L122.529,213.534z M118.38,211.82 c0-0.707-0.228-1.313-0.677-1.823c-0.448-0.508-1.122-0.763-2.02-0.763c-0.44,0-0.847,0.066-1.211,0.205 c-0.367,0.136-0.689,0.321-0.963,0.558c-0.275,0.237-0.496,0.514-0.66,0.832c-0.166,0.317-0.257,0.647-0.274,0.993h5.804 L118.38,211.82z M129.13,209.915v5.194c0,0.638,0.125,1.115,0.372,1.434c0.248,0.32,0.691,0.479,1.333,0.479 c0.22,0,0.455-0.021,0.702-0.056c0.247-0.036,0.454-0.092,0.62-0.163l0.054,3.266c-0.312,0.109-0.705,0.205-1.182,0.287 c-0.479,0.08-0.953,0.121-1.43,0.121c-0.918,0-1.688-0.115-2.312-0.343c-0.623-0.228-1.123-0.556-1.5-0.983 c-0.374-0.428-0.645-0.935-0.811-1.527c-0.164-0.592-0.248-1.25-0.248-1.98v-5.731h-2.199v-3.323h2.174v-3.564h4.427v3.565h3.218 v3.324h-3.217L129.13,209.915z M139.803,209.915v5.194c0,0.638,0.123,1.115,0.37,1.434c0.248,0.32,0.692,0.479,1.334,0.479 c0.22,0,0.454-0.021,0.7-0.056c0.248-0.036,0.455-0.092,0.62-0.163l0.055,3.266c-0.312,0.109-0.705,0.205-1.185,0.287 c-0.478,0.08-0.951,0.121-1.43,0.121c-0.916,0-1.688-0.115-2.31-0.343c-0.624-0.228-1.124-0.556-1.5-0.983 c-0.375-0.428-0.646-0.935-0.81-1.527c-0.166-0.592-0.248-1.25-0.248-1.98v-5.731h-2.2v-3.323h2.172v-3.564h4.43v3.565h3.216 v3.324h-3.215V209.915z M158.173,213.534v0.547c0,0.183-0.01,0.353-0.028,0.519h-9.93c0.038,0.383,0.152,0.725,0.346,1.033 c0.191,0.311,0.439,0.577,0.744,0.805c0.301,0.229,0.639,0.405,1.016,0.53c0.378,0.13,0.768,0.19,1.171,0.19 c0.715,0,1.319-0.131,1.813-0.393c0.496-0.265,0.9-0.604,1.213-1.021l3.135,1.962c-0.643,0.925-1.488,1.636-2.543,2.136 s-2.28,0.748-3.67,0.748c-1.027,0-2-0.157-2.916-0.476c-0.916-0.316-1.719-0.778-2.404-1.387 c-0.688-0.607-1.23-1.356-1.622-2.248c-0.396-0.89-0.593-1.905-0.593-3.049c0-1.106,0.193-2.111,0.578-3.008 c0.386-0.898,0.91-1.662,1.569-2.288c0.66-0.626,1.437-1.11,2.337-1.456c0.899-0.346,1.867-0.519,2.913-0.519 c1.009,0,1.935,0.167,2.778,0.503c0.844,0.337,1.566,0.822,2.173,1.458c0.604,0.637,1.075,1.407,1.415,2.315 c0.338,0.904,0.508,1.939,0.508,3.1L158.173,213.534z M154.021,211.82c0-0.707-0.226-1.313-0.674-1.823 c-0.449-0.508-1.123-0.763-2.021-0.763c-0.439,0-0.844,0.066-1.21,0.205c-0.368,0.136-0.69,0.321-0.964,0.558 c-0.273,0.237-0.494,0.514-0.659,0.832c-0.165,0.317-0.257,0.647-0.274,0.993h5.803V211.82z"/> </g> </g> </g> </svg>