<?xml version="1.0" encoding="UTF-8" standalone="no"?>
<svg width="40px" height="28px" viewBox="0 0 40 28" version="1.1" xmlns="http://www.w3.org/2000/svg" xmlns:xlink="http://www.w3.org/1999/xlink">
    <!-- Generator: Sketch 39 (31667) - http://www.bohemiancoding.com/sketch -->
    <title>Fill 1</title>
    <desc>Created with Sketch.</desc>
    <defs></defs>
    <g id="Symbols" stroke="none" stroke-width="1" fill="none" fill-rule="evenodd">
        <g id="Global-Nav-/-Global-Header-/-05" transform="translate(-16.000000, -10.000000)" fill="#00A1E0">
            <g id="Left" transform="translate(16.000000, 10.000000)">
                <g id="cloud-logo">
                    <path d="M21.7184862,0.885558011 C24.3570608,0.885558011 26.659558,2.35687293 27.8852928,4.54141436 C28.9511492,4.06525967 30.1303204,3.80026519 31.3710608,3.80026519 C36.130442,3.80026519 39.9889503,7.69249724 39.9889503,12.4939558 C39.9889503,17.2954917 36.130442,21.1876464 31.3710608,21.1876464 C30.7899448,21.1876464 30.2222873,21.129326 29.6733481,21.0185635 C28.5939558,22.9440663 26.5361105,24.2451381 24.1749061,24.2451381 C23.1865525,24.2451381 22.2514144,24.0170387 21.4187624,23.6108066 C20.3245193,26.1854144 17.7741215,27.9905635 14.8026409,27.9905635 C11.707558,27.9905635 9.06960221,26.0324199 8.05758011,23.2859448 C7.61491713,23.3794586 7.15632044,23.4287293 6.68612155,23.4287293 C3.00118232,23.4287293 0.0140773481,20.410453 0.0140773481,16.6871492 C0.0140773481,14.1918232 1.3559116,12.0132376 3.35040884,10.8475249 C2.93969061,9.90248619 2.71174586,8.85998895 2.71174586,7.7640442 C2.71174586,3.48174586 6.18776796,0.0102872928 10.4757901,0.0102872928 C12.9933149,0.0102872928 15.2305304,1.20717127 16.6491713,3.0619779 C17.9384862,1.71890608 19.7332707,0.885558011 21.7184862,0.885558011 Z" id="Fill-1"></path>
                </g>
            </g>
        </g>
    </g>
</svg>