<?xml version="1.0" encoding="utf-8"?>
<!-- Generator: Adobe Illustrator 16.0.0, SVG Export Plug-In . SVG Version: 6.00 Build 0)  -->
<!DOCTYPE svg PUBLIC "-//W3C//DTD SVG 1.1//EN" "http://www.w3.org/Graphics/SVG/1.1/DTD/svg11.dtd">
<svg version="1.1" id="Layer_1" xmlns="http://www.w3.org/2000/svg" xmlns:xlink="http://www.w3.org/1999/xlink" x="0px" y="0px"
	 width="1000px" height="1000px" viewBox="0 0 1000 1000" enable-background="new 0 0 1000 1000" xml:space="preserve">
<path fill="#95F4E2" d="M12.421,581.678c0.972,3.864,2.905,11.027,11.404,18.156c2.383,1.997,453.696,334.337,453.696,334.337
	s3.532,3.354,8.12,3.37c4.589,0.018,327.001,51.526,328.843,51.686c1.843,0.162,9.778,2.493,14.326,0.121
	c4.547-2.375,14.634-10.624,14.634-10.624l142.513-335.925c0,0,3.606-11.574,1.434-18.646
	c-2.176-7.081-145.083-518.682-145.083-518.682s-7.057-18.794-25.032-20.586c-11.824-1.174-553.766-72.642-553.766-72.642
	s-23.841-3.467-34.171,19.827C224.556,42.848,13.605,564.049,13.605,564.049S10.162,572.675,12.421,581.678z"/>
<path fill="#2ECBBE" d="M573.45,664.282L13.861,586.389c0,0,3.604,8.728,9.486,13.035c4.239,3.111,454.261,334.937,455.193,335.564
	c0,0,3.718,2.195,6.434,2.516c2.719,0.316,325.478,58.536,325.478,58.536s8.08,1.466,18.252-2.96"/>
<path fill="#2EA298" d="M843.444,978.727c0,0,139.987-329.99,142.511-335.925c4.236-9.959,2.289-15.635,2.289-15.635
	c-0.556-2.358-143.902-514.422-145.404-519.803c-2.254-8.058-8.647-13.851-8.647-13.851L573.45,664.282L828.704,993.08
	C828.704,993.075,838.519,988.758,843.444,978.727z"/>
</svg>
