<?xml version="1.0" encoding="utf-8"?>
<!-- Generator: Adobe Illustrator 16.0.0, SVG Export Plug-In . SVG Version: 6.00 Build 0)  -->
<!DOCTYPE svg PUBLIC "-//W3C//DTD SVG 1.1//EN" "http://www.w3.org/Graphics/SVG/1.1/DTD/svg11.dtd">
<svg version="1.1" id="Layer_1" xmlns="http://www.w3.org/2000/svg" xmlns:xlink="http://www.w3.org/1999/xlink" x="0px" y="0px"
	 width="1000px" height="1000px" viewBox="0 0 1000 1000" enable-background="new 0 0 1000 1000" xml:space="preserve">
<path fill="#9CE8BC" d="M891.941,0.725l-814.642,447.1c0,0-15.912,9.064-15.276,27.123l525.578,15.501L920.771,0.725
	C920.771,0.725,908.447-7.228,891.941,0.725z"/>
<path fill="#56B786" d="M920.771,0.725L587.602,490.449l332.213,504.343c0,0,17.709-7.755,18.148-27.23l0.03-940.013
	C937.993,27.549,938.746,10.951,920.771,0.725z"/>
<path fill="#48916C" d="M919.814,994.792L587.602,490.449L62.023,474.948c0,0-1.032,13.458,11.454,24.662L892.01,994.532
	C892.01,994.532,904.524,1001.659,919.814,994.792z"/>
</svg>
