<?xml version="1.0" encoding="utf-8"?>
<!-- Generator: Adobe Illustrator 19.0.0, SVG Export Plug-In . SVG Version: 6.00 Build 0)  -->
<!DOCTYPE svg PUBLIC "-//W3C//DTD SVG 1.1//EN" "http://www.w3.org/Graphics/SVG/1.1/DTD/svg11.dtd">
<svg version="1.1" id="Layer_1" xmlns="http://www.w3.org/2000/svg" xmlns:xlink="http://www.w3.org/1999/xlink" x="0px" y="0px"
	 viewBox="0 0 1017.9 252" enable-background="new 0 0 1017.9 252" xml:space="preserve">
<g>
	<path fill="#00A1E0" d="M149.8,27.5c11.6-12.1,27.8-19.6,45.7-19.6c23.8,0,44.5,13.3,55.5,32.9c9.6-4.3,20.2-6.7,31.4-6.7
		c42.9,0,77.6,35.1,77.6,78.3s-34.7,78.3-77.6,78.3c-5.2,0-10.3-0.5-15.3-1.5c-9.7,17.3-28.3,29.1-49.5,29.1
		c-8.9,0-17.3-2.1-24.8-5.7c-9.9,23.2-32.8,39.4-59.6,39.4c-27.9,0-51.6-17.6-60.7-42.4c-4,0.8-8.1,1.3-12.4,1.3
		C26.9,210.9,0,183.7,0,150.2c0-22.5,12.1-42.1,30-52.6c-3.7-8.5-5.8-17.9-5.8-27.8C24.3,31.3,55.6,0,94.2,0
		C116.9,0,137,10.8,149.8,27.5z"/>
</g>
<g>
	<path fill="#FFFFFF" d="M52.1,130.7c-0.2,0.6,0.1,0.7,0.2,0.8c0.7,0.5,1.4,0.8,2.1,1.2c3.7,1.9,7.1,2.5,10.8,2.5
		c7.4,0,12-3.9,12-10.2v-0.1c0-5.8-5.2-8-10-9.5l-0.6-0.2c-3.7-1.2-6.8-2.2-6.8-4.6v-0.1c0-2.1,1.8-3.6,4.7-3.6c3.2,0,7,1.1,9.4,2.4
		c0,0,0.7,0.5,1-0.2c0.1-0.4,1.4-3.7,1.5-4c0.1-0.4-0.1-0.7-0.4-0.8c-2.8-1.7-6.6-2.8-10.6-2.8l-0.7,0c-6.8,0-11.5,4.1-11.5,9.9v0.1
		c0,6.2,5.2,8.2,10.1,9.6l0.8,0.2c3.6,1.1,6.6,2,6.6,4.5v0.1c0,2.3-2,4-5.2,4c-1.2,0-5.2,0-9.5-2.7c-0.5-0.3-0.8-0.5-1.2-0.8
		c-0.2-0.1-0.7-0.4-1,0.3L52.1,130.7z"/>
	<path fill="#FFFFFF" d="M160.2,130.7c-0.2,0.6,0.1,0.7,0.2,0.8c0.7,0.5,1.4,0.8,2.1,1.2c3.7,1.9,7.1,2.5,10.8,2.5
		c7.4,0,12-3.9,12-10.2v-0.1c0-5.8-5.2-8-10-9.5l-0.6-0.2c-3.7-1.2-6.8-2.2-6.8-4.6v-0.1c0-2.1,1.8-3.6,4.7-3.6c3.2,0,7,1.1,9.4,2.4
		c0,0,0.7,0.5,1-0.2c0.1-0.4,1.4-3.7,1.5-4c0.1-0.4-0.1-0.7-0.4-0.8c-2.8-1.7-6.6-2.8-10.6-2.8l-0.7,0c-6.8,0-11.5,4.1-11.5,9.9v0.1
		c0,6.2,5.2,8.2,10.1,9.6l0.8,0.2c3.6,1.1,6.6,2,6.6,4.5v0.1c0,2.3-2,4-5.2,4c-1.2,0-5.2,0-9.5-2.7c-0.5-0.3-0.8-0.5-1.2-0.8
		c-0.1-0.1-0.8-0.3-1,0.3L160.2,130.7z"/>
	<path fill="#FFFFFF" d="M240.2,111.7c-0.6-2-1.6-3.9-2.8-5.4c-1.3-1.5-2.8-2.7-4.7-3.6c-1.9-0.9-4.1-1.3-6.6-1.3
		c-2.5,0-4.7,0.4-6.6,1.3c-1.9,0.9-3.5,2.1-4.7,3.6c-1.3,1.5-2.2,3.3-2.8,5.4c-0.6,2-0.9,4.3-0.9,6.6c0,2.4,0.3,4.6,0.9,6.6
		c0.6,2,1.5,3.8,2.8,5.4c1.3,1.5,2.9,2.7,4.7,3.6c1.9,0.9,4.1,1.3,6.6,1.3c2.5,0,4.7-0.4,6.6-1.3c1.9-0.9,3.5-2.1,4.7-3.6
		c1.3-1.5,2.2-3.3,2.8-5.4c0.6-2,0.9-4.3,0.9-6.6C241.1,115.9,240.8,113.7,240.2,111.7 M234.1,118.3c0,3.6-0.7,6.4-2,8.4
		c-1.3,2-3.3,2.9-6,2.9c-2.7,0-4.7-1-6-2.9c-1.3-2-1.9-4.8-1.9-8.4c0-3.6,0.7-6.4,1.9-8.3c1.3-2,3.2-2.9,6-2.9c2.7,0,4.7,0.9,6,2.9
		C233.4,111.9,234.1,114.7,234.1,118.3"/>
	<path fill-rule="evenodd" clip-rule="evenodd" fill="#FFFFFF" d="M290.8,128.6c-0.2-0.6-0.8-0.4-0.8-0.4c-0.9,0.3-1.8,0.7-2.9,0.8
		c-1,0.2-2.2,0.2-3.4,0.2c-3,0-5.4-0.9-7-2.6c-1.7-1.8-2.7-4.6-2.6-8.4c0-3.5,0.9-6.1,2.4-8.1c1.5-2,3.8-3,6.8-3
		c2.5,0,4.5,0.3,6.5,0.9c0,0,0.5,0.2,0.7-0.4c0.5-1.5,0.9-2.6,1.5-4.2c0.2-0.5-0.2-0.7-0.4-0.7c-0.8-0.3-2.7-0.8-4.1-1
		c-1.3-0.2-2.9-0.3-4.6-0.3c-2.6,0-4.9,0.4-6.9,1.3c-2,0.9-3.6,2.1-5,3.6c-1.3,1.5-2.3,3.3-3,5.4c-0.7,2-1,4.3-1,6.6
		c0,5.1,1.4,9.2,4.1,12.3c2.7,3,6.8,4.6,12.2,4.6c3.2,0,6.4-0.6,8.7-1.6c0,0,0.4-0.2,0.3-0.7L290.8,128.6z"/>
	<path fill-rule="evenodd" clip-rule="evenodd" fill="#FFFFFF" d="M322.4,110.5c-0.5-2-1.8-4-2.7-4.9c-1.3-1.4-2.7-2.5-4-3
		c-1.7-0.7-3.7-1.2-6-1.2c-2.6,0-5,0.4-6.9,1.3c-1.9,0.9-3.5,2.1-4.8,3.7c-1.3,1.5-2.2,3.4-2.8,5.4c-0.6,2.1-0.9,4.3-0.9,6.7
		c0,2.4,0.3,4.6,0.9,6.7c0.6,2,1.7,3.8,3,5.3c1.4,1.5,3.1,2.7,5.2,3.5c2.1,0.8,4.6,1.2,7.6,1.2c6,0,9.2-1.4,10.5-2.1
		c0.2-0.1,0.5-0.4,0.2-1l-1.4-3.8c-0.2-0.6-0.8-0.4-0.8-0.4c-1.5,0.6-3.6,1.6-8.6,1.5c-3.2,0-5.6-1-7.1-2.5
		c-1.5-1.5-2.3-3.8-2.4-6.9l20.9,0c0,0,0.5,0,0.6-0.5C323,119.3,323.7,115.2,322.4,110.5z M301.6,114.9c0.3-2,0.8-3.6,1.7-4.9
		c1.3-2,3.2-3,6-3c2.7,0,4.5,1.1,5.8,3c0.9,1.3,1.2,3,1.4,4.9L301.6,114.9z"/>
	<path fill-rule="evenodd" clip-rule="evenodd" fill="#FFFFFF" d="M155.3,110.5c-0.5-2-1.8-4-2.7-4.9c-1.3-1.4-2.7-2.5-4-3
		c-1.7-0.7-3.7-1.2-6-1.2c-2.6,0-5,0.4-6.9,1.3c-1.9,0.9-3.5,2.1-4.8,3.7c-1.3,1.5-2.2,3.4-2.8,5.4c-0.6,2.1-0.9,4.3-0.9,6.7
		c0,2.4,0.3,4.6,0.9,6.7c0.6,2,1.7,3.8,3,5.3c1.4,1.5,3.1,2.7,5.2,3.5c2.1,0.8,4.6,1.2,7.6,1.2c6,0,9.2-1.4,10.5-2.1
		c0.2-0.1,0.4-0.4,0.2-1l-1.4-3.8c-0.2-0.6-0.8-0.4-0.8-0.4c-1.5,0.6-3.6,1.6-8.6,1.5c-3.2,0-5.6-1-7.1-2.5
		c-1.5-1.5-2.3-3.8-2.4-6.9l20.9,0c0,0,0.5,0,0.6-0.5C155.9,119.3,156.6,115.2,155.3,110.5z M134.5,114.9c0.3-2,0.8-3.6,1.7-4.9
		c1.3-2,3.2-3,6-3c2.7,0,4.5,1.1,5.8,3c0.9,1.3,1.2,3,1.4,4.9L134.5,114.9z"/>
	<path fill="#FFFFFF" d="M97.7,113.9c-0.8-0.1-1.9-0.1-3.3-0.1c-1.8,0-3.5,0.2-5.1,0.7c-1.6,0.4-3.1,1.1-4.4,2
		c-1.3,0.9-2.3,2.1-3,3.4c-0.7,1.4-1.1,3-1.1,4.8c0,1.8,0.3,3.5,1,4.8c0.6,1.3,1.6,2.4,2.7,3.3c1.2,0.8,2.6,1.5,4.3,1.8
		c1.6,0.4,3.5,0.6,5.5,0.6c2.1,0,4.3-0.2,6.3-0.5c2-0.3,4.6-0.9,5.3-1c0.7-0.2,1.5-0.4,1.5-0.4c0.5-0.1,0.5-0.7,0.5-0.7l0-19.1
		c0-4.2-1.1-7.3-3.3-9.2c-2.2-1.9-5.4-2.9-9.6-2.9c-1.6,0-4.1,0.2-5.6,0.5c0,0-4.6,0.9-6.4,2.4c0,0-0.4,0.3-0.2,0.8l1.5,4
		c0.2,0.5,0.7,0.3,0.7,0.3s0.2-0.1,0.3-0.2c4-2.2,9.1-2.1,9.1-2.1c2.3,0,4,0.5,5.2,1.3c1.1,0.9,1.7,2.2,1.7,5v0.9
		C99.4,114,97.7,113.9,97.7,113.9z M89.4,128.5c-0.8-0.7-0.9-0.8-1.2-1.2c-0.4-0.6-0.6-1.6-0.6-2.7c0-1.8,0.6-3.2,1.9-4
		c0,0,1.8-1.6,6.1-1.5c3,0,5.7,0.5,5.7,0.5v9.5h0c0,0-2.7,0.6-5.6,0.7C91.3,130,89.4,128.5,89.4,128.5z"/>
	<path fill-rule="evenodd" clip-rule="evenodd" fill="#FFFFFF" d="M266,103.1c0.2-0.5-0.2-0.7-0.3-0.8c-0.4-0.1-2.1-0.5-3.5-0.6
		c-2.6-0.2-4.1,0.3-5.4,0.9c-1.3,0.6-2.7,1.5-3.5,2.6l0-2.5c0-0.3-0.2-0.6-0.6-0.6h-5.3c-0.3,0-0.6,0.3-0.6,0.6v31.1
		c0,0.3,0.3,0.6,0.6,0.6h5.5c0.3,0,0.6-0.3,0.6-0.6v-15.6c0-2.1,0.2-4.2,0.7-5.5c0.5-1.3,1.1-2.3,1.8-3.1c0.8-0.7,1.6-1.3,2.6-1.5
		c1-0.3,2-0.4,2.8-0.4c1.1,0,2.3,0.3,2.3,0.3c0.4,0,0.6-0.2,0.8-0.6C264.8,106.5,265.8,103.7,266,103.1z"/>
	<path fill-rule="evenodd" clip-rule="evenodd" fill="#FFFFFF" d="M214.5,88.7c-0.7-0.2-1.3-0.3-2.1-0.5c-0.8-0.1-1.8-0.2-2.8-0.2
		c-3.8,0-6.7,1.1-8.8,3.2c-2.1,2.1-3.5,5.3-4.2,9.5l-0.3,1.4h-4.7c0,0-0.6,0-0.7,0.6l-0.8,4.3c-0.1,0.4,0.1,0.7,0.7,0.7h4.6
		l-4.7,26.1c-0.4,2.1-0.8,3.8-1.2,5.1c-0.5,1.3-0.9,2.3-1.5,3c-0.5,0.7-1,1.2-1.9,1.5c-0.7,0.2-1.5,0.4-2.5,0.4
		c-0.5,0-1.2-0.1-1.7-0.2c-0.5-0.1-0.8-0.2-1.1-0.4c0,0-0.5-0.2-0.8,0.3c-0.2,0.4-1.4,3.8-1.5,4.2c-0.1,0.4,0.1,0.7,0.3,0.8
		c0.6,0.2,1.1,0.4,1.9,0.6c1.2,0.3,2.1,0.3,3.1,0.3c1.9,0,3.7-0.3,5.1-0.8c1.5-0.5,2.7-1.4,3.9-2.7c1.2-1.3,2-2.7,2.7-4.7
		c0.7-1.9,1.3-4.3,1.8-7l4.7-26.6h6.9c0,0,0.6,0,0.7-0.6l0.8-4.3c0.1-0.4-0.1-0.7-0.7-0.7h-6.7c0-0.2,0.3-2.5,1.1-4.7
		c0.3-0.9,0.9-1.7,1.5-2.2c0.5-0.5,1.1-0.9,1.7-1.1c0.7-0.2,1.4-0.3,2.2-0.3c0.6,0,1.2,0.1,1.7,0.2c0.6,0.1,0.9,0.2,1.1,0.3
		c0.7,0.2,0.8,0,0.9-0.3l1.6-4.4C215.1,88.9,214.7,88.7,214.5,88.7z"/>
	<path fill-rule="evenodd" clip-rule="evenodd" fill="#FFFFFF" d="M121.3,133.8c0,0.3-0.2,0.6-0.6,0.6h-5.5c-0.3,0-0.6-0.3-0.6-0.6
		V89.3c0-0.3,0.2-0.6,0.6-0.6h5.5c0.3,0,0.6,0.3,0.6,0.6V133.8z"/>
</g>
<g>
	<path fill="#7C868D" d="M385.2,98.9c0-3.4-0.2-6.8-0.6-10.3h7.3c0.3,1.6,0.5,3.8,0.6,6.5h0.2c1.4-2.3,3.5-4.1,6.1-5.6
		c2.6-1.4,5.6-2.2,9-2.2c3.9,0,7.1,0.8,9.5,2.5c2.5,1.7,4.3,3.9,5.4,6.8h0.2c1.6-2.9,3.7-5.1,6.4-6.8c2.7-1.6,5.9-2.5,9.7-2.5
		c3.8,0,6.9,0.8,9.4,2.5c2.5,1.7,4.4,3.8,5.6,6.5c1.2,2.7,1.8,5.6,1.8,8.8v29.3h-7.6v-28.3c0-3.5-0.9-6.5-2.6-8.9
		c-1.7-2.4-4.5-3.6-8.2-3.6c-2.8,0-5.1,0.7-7.1,2.2c-2,1.4-3.5,3.4-4.5,5.8c-1,2.4-1.5,5-1.5,7.7v25.1h-7.6V106
		c0-3.5-0.9-6.4-2.6-8.8c-1.7-2.4-4.5-3.6-8.2-3.6c-4,0-7.1,1.4-9.5,4.2c-2.3,2.8-3.5,6.2-3.5,10.3v26.3h-7.6V98.9z"/>
	<path fill="#7C868D" d="M464.7,121.9c0-5.9,2.1-10.1,6.4-12.4c4.3-2.3,10.8-3.5,19.4-3.5c2.1,0,3.7,0,4.8,0.1v-2.6
		c0-3.4-0.9-6-2.8-7.6c-1.9-1.7-4.7-2.5-8.5-2.5c-4.9,0-9.5,1.3-13.8,3.9l-2.7-5.1c5.2-3.2,10.8-4.8,16.9-4.8
		c6.4,0,11.1,1.5,14.1,4.5c3,3,4.5,7.6,4.5,13.7v18.7c0,3.3,0.2,6.7,0.6,10.2h-7c-0.4-2.6-0.6-4.7-0.6-6.2h-0.3
		c-1.7,2.5-3.8,4.3-6.3,5.6c-2.6,1.3-5.8,1.9-9.9,1.9c-4.4,0-8-1.2-10.7-3.6C466,129.7,464.7,126.3,464.7,121.9z M495.3,117.5v-5.9
		l-4-0.1c-4.5,0-8.1,0.3-10.8,0.9c-2.7,0.6-4.7,1.6-5.9,3.1c-1.3,1.4-1.9,3.5-1.9,6c0,2.6,0.8,4.7,2.3,6.1c1.6,1.4,3.7,2.1,6.5,2.1
		c2.9,0,5.4-0.6,7.5-1.8c2.1-1.2,3.7-2.8,4.8-4.6C494.7,121.3,495.3,119.4,495.3,117.5z"/>
	<path fill="#7C868D" d="M514.4,98.9c0-3.4-0.2-6.8-0.6-10.3h7.3c0.3,2,0.5,4.5,0.6,7.3h0.2c2.6-5.7,7.4-8.6,14.4-8.6
		c0.5,0,1.4,0.1,2.6,0.3l-0.5,6.6c-0.6-0.1-1.5-0.2-2.8-0.2c-4.4,0-7.7,1.5-10.1,4.4c-2.3,2.9-3.5,6.8-3.5,11.4v24.6h-7.6V98.9z"/>
	<path fill="#7C868D" d="M558.4,112.4l-4.4,4.1v17.8h-7.6V70.7h7.6v37.3l20.8-19.3h9.2l-20.2,18.9l22.2,26.9h-9.5L558.4,112.4z"/>
	<path fill="#7C868D" d="M629.7,114.2h-34c0.3,4.7,1.7,8.4,4.2,11.2c2.5,2.8,6.1,4.1,10.8,4.1c2.8,0,5.2-0.4,7.4-1.1
		c2.2-0.7,4.4-1.9,6.6-3.4l3.4,5c-2.6,1.9-5.3,3.3-8.2,4.2c-2.9,1-6.1,1.4-9.7,1.4c-7,0-12.5-2.2-16.4-6.7
		c-3.9-4.4-5.9-10.4-5.9-17.7c0-4.7,0.8-8.9,2.5-12.5c1.7-3.6,4.1-6.4,7.3-8.4c3.2-2,7.1-3,11.6-3c6.7,0,11.7,2.2,15.3,6.5
		c3.5,4.3,5.3,10.1,5.3,17.2C629.8,112.4,629.8,113.5,629.7,114.2z M622.4,108.3c-0.1-4.6-1.3-8.2-3.5-11c-2.2-2.8-5.4-4.1-9.6-4.1
		c-4.3,0-7.6,1.4-9.9,4.3c-2.3,2.9-3.6,6.5-3.8,10.8H622.4z"/>
	<path fill="#7C868D" d="M650,88.6h12.2v5.8H650v27.6c0,4.9,2.2,7.4,6.8,7.4c1.6,0,3.1-0.2,4.5-0.6l1.2,5.7c-2,0.8-4.4,1.2-7.1,1.2
		c-4,0-7.2-1.1-9.5-3.4c-2.3-2.2-3.5-5.4-3.5-9.6V94.4h-8.1v-5l8-0.9V77.3l7.7-2.7V88.6z"/>
	<path fill="#7C868D" d="M670.8,72.9c0-3.2,1.7-4.9,5-4.9c3.3,0,4.9,1.6,4.9,4.9c0,1.4-0.4,2.5-1.2,3.4c-0.8,0.9-2,1.3-3.8,1.3
		c-1.8,0-3.1-0.4-3.9-1.3C671.2,75.4,670.8,74.3,670.8,72.9z M679.6,134.4H672V88.6h7.6V134.4z"/>
	<path fill="#7C868D" d="M692.4,98.9c0-3.4-0.2-6.8-0.6-10.3h7.3c0.3,1.6,0.5,3.8,0.6,6.5h0.2c1.5-2.3,3.6-4.2,6.3-5.6
		c2.7-1.4,5.9-2.1,9.6-2.1c5.8,0,10,1.7,12.8,5s4.2,7.5,4.2,12.5v29.6h-7.6v-28.1c0-3.7-0.9-6.7-2.7-9c-1.8-2.4-4.7-3.6-8.7-3.6
		c-4.1,0-7.5,1.4-9.9,4.1c-2.5,2.7-3.7,6.2-3.7,10.3v26.3h-7.6V98.9z"/>
	<path fill="#7C868D" d="M740.4,143.8c0-2.6,0.7-4.9,2.2-7c1.5-2.1,3.9-3.9,7.2-5.6c-2.9-1.3-4.4-3.3-4.4-6c0-1.6,0.6-3.1,1.8-4.3
		s2.8-2.2,4.9-2.8c-2.8-1.1-5-2.9-6.6-5.2c-1.6-2.3-2.4-5.3-2.4-8.9c0-5.1,1.7-9.1,5-12.1c3.4-2.9,8-4.4,14-4.4c1.6,0,3,0.1,4.1,0.3
		c1.1,0.2,2.4,0.5,4,0.9h15.9v6.1L776,93.6c1.4,1,2.6,2.5,3.5,4.3c0.9,1.9,1.3,4.1,1.3,6.7c0,4.9-1.7,8.7-5,11.4
		c-3.3,2.7-7.9,4.1-13.9,4.1c-3,0-5.4,0.4-7.1,1.2c-1.7,0.8-2.6,1.9-2.6,3.2c0,2.5,2.9,3.7,8.7,3.8c8.5,0.1,14.6,1.2,18.4,3.4
		c3.8,2.1,5.7,5.4,5.7,9.7c0,5.2-2.1,9.1-6.4,12c-4.3,2.8-10.3,4.2-18,4.2c-6.7,0-11.8-1.2-15.3-3.6
		C742.1,151.5,740.4,148.1,740.4,143.8z M777.7,142c0-1.8-0.7-3.3-2-4.4c-1.3-1.1-3.6-2-6.9-2.6s-7.7-0.9-13.3-0.9
		c-2.7,1.2-4.7,2.6-5.8,4.1c-1.2,1.5-1.8,3.3-1.8,5.3c0,5.6,4.4,8.4,13.2,8.4c5.5,0,9.6-0.8,12.4-2.5S777.7,145.1,777.7,142z
		 M773.7,104c0-3.3-1-5.9-3-7.9c-2-2-4.9-3-8.8-3c-3.6,0-6.5,1-8.6,2.9c-2.1,1.9-3.2,4.5-3.2,7.7c0,3.4,1,6.1,2.9,8
		c1.9,1.9,4.9,2.9,8.9,2.9C769.8,114.6,773.7,111.1,773.7,104z"/>
	<path fill="#7C868D" d="M831.4,87.3c2.9,0,5.6,0.4,8.2,1.3c2.6,0.9,4.9,2.1,7,3.6l-3.1,5.3c-3.5-2.6-7.5-3.9-12.2-3.9
		c-4.9,0-8.6,1.6-11.2,4.8c-2.5,3.2-3.8,7.5-3.8,12.9c0,5.3,1.3,9.6,3.8,12.8c2.5,3.3,6.2,4.9,11.1,4.9c4.1,0,8.2-1.3,12.3-3.9
		l2.8,5.4c-4.6,3.3-9.8,5-15.7,5c-5.2,0-9.4-1.2-12.7-3.5c-3.3-2.3-5.7-5.3-7.2-9c-1.5-3.7-2.2-7.6-2.2-11.8c0-7.3,2-13.2,6-17.5
		C818.8,89.5,824.4,87.3,831.4,87.3z"/>
	<path fill="#7C868D" d="M863.1,70.7v63.7h-7.7V70.7H863.1z"/>
	<path fill="#7C868D" d="M918.1,111.4c0,4.7-0.9,9-2.7,12.6c-1.8,3.7-4.5,6.6-7.9,8.6c-3.5,2-7.6,3.1-12.4,3.1
		c-4.7,0-8.9-1-12.3-3.1c-3.5-2.1-6.1-4.9-7.9-8.6c-1.8-3.7-2.7-7.9-2.7-12.6c0-7.3,2-13.2,6-17.5c4-4.3,9.7-6.5,16.9-6.5
		c4.9,0,9,1,12.5,3c3.4,2,6.1,4.8,7.9,8.4C917.2,102.4,918.1,106.6,918.1,111.4z M880,111.4c0,5.5,1.2,9.9,3.7,13.2
		c2.5,3.3,6.3,5,11.3,5c5.1,0,8.9-1.7,11.4-5c2.5-3.3,3.8-7.7,3.8-13.2c0-5.5-1.3-9.8-3.8-13c-2.5-3.2-6.3-4.9-11.4-4.9
		c-5.1,0-8.9,1.6-11.3,4.9C881.3,101.6,880,105.9,880,111.4z"/>
	<path fill="#7C868D" d="M925.3,116.7V88.6h7.7v27c0,4.2,0.9,7.6,2.7,10.1c1.8,2.6,4.7,3.8,8.5,3.8c4.2,0,7.6-1.6,10.1-4.7
		c2.5-3.2,3.8-7.1,3.8-11.7V88.6h7.7v35.6c0,3.3,0.2,6.7,0.6,10.2h-7.3c-0.3-1.9-0.5-4.3-0.6-7.3h-0.2c-3.3,5.7-8.6,8.5-15.8,8.5
		c-5.7,0-10-1.8-12.9-5.3C926.7,126.9,925.3,122.3,925.3,116.7z"/>
	<path fill="#7C868D" d="M1017.9,134.4h-7.1c-0.4-2.6-0.6-4.9-0.6-6.8h-0.2c-3.4,5.4-8.9,8.1-16.4,8.1c-6.5,0-11.4-2.2-14.9-6.7
		c-3.5-4.4-5.2-10.2-5.2-17.4c0-4.6,0.9-8.7,2.6-12.4c1.7-3.7,4.2-6.6,7.3-8.7c3.2-2.1,6.9-3.2,11.2-3.2c6.1,0,11.1,2,14.9,5.9V70.7
		h7.7v53.5C1017.3,127.5,1017.5,130.9,1017.9,134.4z M1009.6,114.7v-14.4c-1.8-2.3-3.8-4-6.1-5.1c-2.2-1.1-4.8-1.7-7.8-1.7
		c-4.4,0-7.9,1.7-10.5,5c-2.6,3.4-3.8,7.7-3.8,13.1c0,5.5,1.2,9.9,3.7,13.1c2.5,3.2,5.8,4.8,10.2,4.8c4.3,0,7.8-1.4,10.4-4.2
		C1008.3,122.6,1009.6,119,1009.6,114.7z"/>
</g>
</svg>
