<?xml version="1.0" encoding="UTF-8"?>
<svg width="472px" height="152px" viewBox="0 0 472 152" version="1.1" xmlns="http://www.w3.org/2000/svg" xmlns:xlink="http://www.w3.org/1999/xlink">
    <!-- Generator: Sketch 47.1 (45422) - http://www.bohemiancoding.com/sketch -->
    <title>Slice 1</title>
    <desc>Created with Sketch.</desc>
    <defs></defs>
    <g id="Page-1" stroke="none" stroke-width="1" fill="none" fill-rule="evenodd">
        <g id="design-system-react-logo-type" fill-rule="nonzero" fill="#000000">
            <path d="M44.9,29.5 C44.9,38.5 42.5,45.3 37.6,50 C32.7,54.7 25.9,57 17.1,57 L0.6,57 L0.6,2.1 L17,2.1 C25.9,2.1 32.8,4.4 37.6,9 C42.4,13.6 44.9,20.4 44.9,29.5 Z M4.6,5.4 L4.6,53.6 L16.6,53.6 C24.4,53.6 30.4,51.6 34.6,47.6 C38.8,43.6 40.9,37.6 40.9,29.5 C40.9,21.3 38.8,15.3 34.7,11.3 C30.6,7.3 24.6,5.4 16.7,5.4 L4.6,5.4 Z" id="Shape"></path>
            <path d="M86.2,38.8 L55.7,38.8 C55.9,43.6 57.2,47.4 59.7,50.4 C62.2,53.4 65.7,54.8 70.2,54.8 C72.5,54.9 74.8,54.5 76.9,53.8 C79,53 81,52 82.8,50.7 L84.6,53.3 C82.6,54.8 80.3,56 77.9,56.8 C75.4,57.6 72.7,58 70,58 C64.2,58 59.7,56.1 56.6,52.3 C53.4,48.5 51.8,43.5 51.8,37.3 C51.7,33.7 52.4,30.1 53.9,26.8 C55.2,23.9 57.3,21.4 59.9,19.7 C62.7,17.9 66,17 69.3,17.1 C74.8,17.1 78.9,18.9 81.8,22.4 C84.7,26 86.1,30.7 86.1,36.7 C86.3,37.5 86.2,38.2 86.2,38.8 Z M82.5,35.8 C82.4,31 81.2,27.2 79,24.4 C76.8,21.6 73.6,20.2 69.3,20.2 C65.5,20 61.8,21.7 59.4,24.7 C56.9,27.9 55.6,31.8 55.7,35.8 C55.7,35.8 82.5,35.8 82.5,35.8 Z" id="Shape"></path>
            <path d="M117.6,21.2 L115.8,23.7 C112.8,21.4 109.1,20.1 105.3,20.2 C102.9,20.1 100.6,20.7 98.6,22 C97,23.1 96,25 96.1,27 C96,28.9 96.8,30.8 98.4,32 C99.9,33.2 102.7,34.2 106.6,35.1 C110.7,36.1 113.7,37.5 115.6,39.3 C117.5,41.2 118.6,43.9 118.4,46.6 C118.5,49.8 117.1,53 114.5,55 C111.7,57.1 108.2,58.2 104.7,58.1 C102.1,58.1 99.6,57.7 97.1,56.9 C94.9,56.1 92.8,55 91,53.5 L92.9,51.1 C94.6,52.3 96.4,53.3 98.4,54 C100.4,54.7 102.6,55 104.7,54.9 C107.3,55 109.8,54.3 111.9,52.7 C113.7,51.2 114.7,49 114.6,46.7 C114.7,45.3 114.3,43.9 113.7,42.7 C112.9,41.5 111.8,40.6 110.5,40 C108.5,39.1 106.3,38.4 104.2,37.9 C100,36.9 96.9,35.6 95.1,33.9 C93.2,32.2 92.2,29.7 92.3,27.1 C92.2,24.2 93.5,21.5 95.9,19.8 C98.3,18 101.4,17.1 105.4,17.1 C109.7,17.1 114,18.5 117.6,21.2 Z" id="Shape"></path>
            <path d="M126.7,4 C126.7,2.1 127.7,1.1 129.6,1.1 C131.5,1.1 132.5,2.1 132.5,4 C132.5,5.9 131.5,6.8 129.6,6.8 C127.7,6.8 126.7,5.9 126.7,4 Z M131.6,57 L127.7,57 L127.7,18.3 L131.6,18.3 L131.6,57 Z" id="Shape"></path>
            <path d="M139.1,65.6 C139.1,63.4 139.8,61.2 141.2,59.4 C142.6,57.6 144.9,56 148.3,54.6 C145.4,53.6 144,51.9 144,49.6 C144,48.2 144.6,46.9 145.6,46 C146.9,44.9 148.5,44.1 150.1,43.7 C147.5,43 145.3,41.5 143.7,39.4 C142.1,37 141.2,34.1 141.4,31.2 C141.4,27 142.8,23.6 145.5,21.1 C148.2,18.6 152,17.4 156.9,17.4 C158,17.4 159.2,17.5 160.3,17.6 C161.3,17.8 162.4,18 163.4,18.3 L176.3,18.3 L176.3,21.4 L166.9,20.9 C168.6,21.8 169.9,23.2 170.8,24.9 C171.9,26.9 172.4,29.2 172.3,31.5 C172.3,35.8 171,39.1 168.3,41.5 C165.6,43.9 161.8,45.1 156.8,45 C154.6,44.9 152.4,45.3 150.3,46.2 C148.6,47 147.7,48 147.7,49.3 C147.7,51.7 150.3,52.9 155.4,52.9 C162.8,52.9 168,53.8 171.2,55.6 C174.2,57.1 176.1,60.2 176,63.5 C176.1,67.5 174.1,71.3 170.7,73.4 C167.2,75.7 162.2,76.9 155.9,76.9 C150.4,76.9 146.3,75.9 143.5,74 C140.5,72.1 138.9,68.9 139.1,65.6 Z M171.8,63.9 C171.9,62.2 171.2,60.6 170,59.4 C168.8,58.3 166.7,57.4 163.8,56.8 C159.8,56.1 155.7,55.9 151.6,56 C148.4,57.2 146.1,58.5 144.8,60.1 C143.5,61.6 142.8,63.5 142.8,65.5 C142.8,71.1 147.1,73.9 155.7,73.9 C160.9,73.9 164.9,73 167.7,71.3 C170.3,69.7 171.9,66.9 171.8,63.9 L171.8,63.9 Z M168.3,31.2 C168.5,28.2 167.3,25.4 165.2,23.3 C163.2,21.4 160.3,20.4 156.5,20.4 C152.8,20.4 150,21.4 147.9,23.3 C145.8,25.3 144.7,28.2 144.8,31.1 C144.8,34.6 145.8,37.3 147.7,39.2 C149.6,41.1 152.6,42 156.5,42 C160.5,42 163.5,41.1 165.4,39.2 C167.4,37.4 168.3,34.7 168.3,31.2 L168.3,31.2 Z" id="Shape"></path>
            <path d="M183.6,26.7 C183.6,24.2 183.4,21.4 183.1,18.3 L186.7,18.3 C187,20.7 187.1,23.1 187.2,25.5 L187.3,25.5 C188.5,23 190.4,20.9 192.8,19.5 C195.5,17.9 198.6,17.1 201.7,17.3 C206.6,17.3 210.2,18.7 212.5,21.6 C214.9,24.7 216.2,28.5 216.1,32.5 L216.1,57 L212.2,57 L212.2,33.1 C212.3,29.9 211.4,26.7 209.5,24.1 C207.7,21.7 204.8,20.5 200.9,20.5 C198.4,20.4 196,21.1 193.8,22.3 C191.8,23.5 190.1,25.2 189.1,27.3 C188,29.4 187.4,31.8 187.4,34.2 L187.4,57 L183.5,57 L183.6,26.7 Z" id="Shape"></path>
            <path d="M238.3,51.6 L240.4,49.1 C244.9,52.9 250.6,54.9 256.4,54.7 C260,54.9 263.6,53.7 266.5,51.6 C269.2,49.5 270.7,46.2 270.5,42.8 C270.6,40.5 270,38.2 268.7,36.3 C267.4,34.6 265.8,33.2 263.8,32.2 C261.2,31 258.5,30 255.7,29.3 C250.4,27.9 246.5,26.1 244,24 C241.5,21.9 240.3,18.8 240.3,14.8 C240.2,10.8 242,7 245.1,4.6 C248.3,2.1 252.4,0.9 257.5,0.9 C260.4,0.9 263.3,1.3 266.1,2.2 C268.7,3.1 271.1,4.3 273.2,5.9 L271.3,8.5 C269.4,7.1 267.2,6 264.9,5.3 C262.5,4.6 260,4.2 257.5,4.2 C253.5,4.2 250.3,5.1 247.8,7 C245.4,8.8 244,11.7 244.1,14.8 C243.9,17.5 245.1,20.1 247.2,21.8 C249.3,23.4 252.7,24.8 257.3,26.1 C260.5,26.9 263.6,28 266.5,29.5 C268.8,30.7 270.8,32.4 272.2,34.6 C273.7,37 274.4,39.8 274.2,42.6 C274.5,48.6 270.9,54.1 265.4,56.3 C262.5,57.5 259.3,58.1 256.2,58.1 C249.8,58.3 243.3,56 238.3,51.6 Z" id="Shape"></path>
            <path d="M292.4,68 C291.7,70.6 290.2,73 288.3,74.8 C286.5,76.3 284.2,77 281.9,76.9 C280.4,76.9 279,76.7 277.6,76.2 L278.4,73.3 C279.4,73.6 280.5,73.7 281.5,73.7 C283.2,73.8 284.9,73.2 286.1,72 C287.4,70.6 288.4,68.9 289,67 L292.3,57.2 L277.2,18.2 L281.3,18.2 L294.3,52.7 L294.4,52.7 L306.5,18.2 L310.5,18.2 L292.4,68 Z" id="Shape"></path>
            <path d="M338,21.2 L336.2,23.7 C333.2,21.4 329.5,20.1 325.7,20.2 C323.3,20.1 321,20.7 318.9,22 C317.3,23.1 316.3,25 316.4,27 C316.3,28.9 317.2,30.8 318.7,32 C320.2,33.2 323,34.2 326.9,35.1 C331,36.1 334,37.5 335.9,39.3 C337.8,41.2 338.9,43.9 338.7,46.6 C338.8,49.8 337.4,52.9 334.8,54.9 C332,57 328.5,58.1 325,58 C322.4,58 319.9,57.6 317.4,56.8 C315.2,56 313.1,54.9 311.3,53.4 L313.2,51 C314.9,52.2 316.7,53.2 318.7,53.9 C320.7,54.6 322.9,54.9 325,54.8 C327.6,54.9 330.1,54.2 332.2,52.6 C334,51.1 335,48.9 334.9,46.6 C335,45.2 334.6,43.8 334,42.6 C333.2,41.4 332.1,40.5 330.8,39.9 C328.8,39 326.6,38.3 324.4,37.8 C320.2,36.8 317.1,35.5 315.3,33.8 C313.4,32.1 312.4,29.6 312.5,27 C312.4,24.1 313.7,21.4 316.1,19.7 C318.5,17.9 321.6,17 325.6,17 C330.1,17.1 334.5,18.5 338,21.2 Z" id="Shape"></path>
            <path d="M353.2,18.3 L364.1,18.3 L364.1,21.3 L353.2,21.3 L353.2,48 C353.2,50.4 353.8,52.1 354.9,53.2 C356.1,54.4 357.8,55 359.5,54.9 C360.9,54.9 362.3,54.7 363.7,54.3 L364.3,57.2 C362.6,57.8 360.7,58.2 358.9,58.1 C356.3,58.2 353.8,57.3 351.9,55.5 C350.2,53.8 349.3,51.4 349.3,48.2 L349.3,21.3 L342,21.3 L342,18.8 L349.3,18.3 L349.3,8.2 L353.2,6.8 L353.2,18.3 Z" id="Shape"></path>
            <path d="M403,38.8 L372.5,38.8 C372.7,43.6 374,47.4 376.5,50.4 C379,53.4 382.5,54.8 387,54.8 C389.3,54.9 391.6,54.5 393.7,53.8 C395.8,53 397.8,52 399.6,50.7 L401.4,53.3 C399.4,54.8 397.1,56 394.7,56.8 C392.2,57.6 389.5,58 386.8,58 C381,58 376.5,56.1 373.4,52.3 C370.3,48.5 368.6,43.5 368.6,37.3 C368.5,33.7 369.2,30.1 370.7,26.8 C372,23.9 374.1,21.4 376.7,19.7 C379.5,17.9 382.8,17 386.2,17.1 C391.7,17.1 395.8,18.9 398.7,22.4 C401.6,26 403,30.7 403,36.7 C403,37.6 403,38.2 403,38.8 Z M399.4,35.8 C399.3,31 398.1,27.2 395.9,24.4 C393.7,21.6 390.5,20.2 386.2,20.2 C382.4,20 378.7,21.7 376.3,24.7 C373.8,27.9 372.5,31.8 372.6,35.8 C372.6,35.8 399.4,35.8 399.4,35.8 Z" id="Shape"></path>
            <path d="M412.9,26.7 C412.9,24.2 412.7,21.4 412.4,18.3 L416,18.3 C416.3,20.7 416.4,23 416.5,25.4 L416.7,25.4 C417.8,22.9 419.7,20.8 422,19.4 C424.5,17.9 427.4,17.1 430.4,17.2 C437.2,17.2 441.5,20.5 443.2,27 L443.4,27 C444.4,24.1 446.4,21.6 448.9,19.8 C451.5,18 454.6,17.1 457.8,17.2 C462.4,17.2 465.9,18.6 468.2,21.5 C470.6,24.5 471.8,28.2 471.7,32.1 L471.7,57 L467.8,57 L467.8,32.6 C467.9,29.5 466.9,26.5 465.1,24.1 C463.3,21.7 460.7,20.5 457.1,20.5 C454.6,20.4 452.1,21.2 450.1,22.6 C448.1,24 446.5,26 445.6,28.2 C444.6,30.6 444,33.1 444.1,35.7 L444.1,57 L440.3,57 L440.3,33 C440.4,29.8 439.5,26.7 437.8,24 C436.1,21.6 433.4,20.4 429.7,20.4 C424.9,20.3 420.5,23 418.5,27.2 C417.5,29.4 416.9,31.7 417,34.1 L417,57 L413.1,57 L413.1,26.7 L412.9,26.7 Z" id="Shape"></path>
            <path d="M32,149.9 L18.2,128.6 L4.6,128.6 L4.6,149.9 L0.6,149.9 L0.6,95.1 L17.7,95.1 C20.8,95.1 23.8,95.7 26.6,97 C29.3,98.2 31.5,100.2 33.1,102.7 C34.8,105.5 35.7,108.8 35.6,112.1 C35.6,116.6 34.3,120.2 31.8,122.9 C29.2,125.7 25.8,127.5 22.1,128.2 L36.6,150 L32,150 L32,149.9 Z M17.5,125.4 C21.2,125.5 24.7,124.3 27.5,121.9 C30.2,119.6 31.5,116.3 31.5,112 C31.5,107.5 30.1,104 27.4,101.7 C24.6,99.4 21,98.1 17.4,98.3 L4.6,98.3 L4.6,125.4 L17.5,125.4 Z" id="Shape"></path>
            <path d="M75.7,131.8 L45.3,131.8 C45.5,136.6 46.8,140.4 49.3,143.4 C51.8,146.4 55.3,147.8 59.8,147.8 C62.1,147.9 64.4,147.5 66.5,146.8 C68.6,146 70.6,145 72.4,143.7 L74.2,146.3 C72.2,147.8 69.9,149 67.5,149.8 C65,150.6 62.3,151 59.6,151 C53.8,151 49.3,149.1 46.2,145.3 C43,141.5 41.4,136.5 41.4,130.3 C41.3,126.7 42,123.1 43.5,119.8 C44.8,116.9 46.9,114.4 49.5,112.7 C52.3,110.9 55.6,110 59,110.1 C64.5,110.1 68.6,111.9 71.5,115.4 C74.4,118.9 75.8,123.7 75.8,129.7 C75.8,130.5 75.8,131.1 75.7,131.8 Z M72.1,128.8 C72,124 70.8,120.2 68.6,117.4 C66.4,114.6 63.2,113.2 58.9,113.2 C55.1,113 51.4,114.7 49,117.6 C46.5,120.8 45.2,124.7 45.3,128.7 L72.1,128.8 Z" id="Shape"></path>
            <path d="M82,139.6 C82,136.3 82.8,133.6 84.5,131.7 C86.5,129.6 89.1,128.2 91.9,127.6 C96.1,126.7 100.4,126.3 104.6,126.4 C106.5,126.4 107.9,126.4 108.9,126.5 L108.9,124 C108.9,116.9 105.3,113.3 98,113.3 C95.8,113.3 93.7,113.6 91.6,114.2 C89.6,114.8 87.7,115.7 85.9,116.8 L84.5,114.2 C88.5,111.5 93.3,110.1 98.1,110.2 C103.1,110.2 106.7,111.4 109.1,113.8 C111.5,116.2 112.7,119.9 112.7,124.8 L112.7,141.5 C112.7,143.9 112.9,146.7 113.2,149.9 L109.6,149.9 C109.4,148.1 109.2,146 109.1,143.5 L109,143.5 C107.7,145.9 105.7,147.8 103.3,149.1 C100.5,150.5 97.5,151.2 94.4,151.1 C90.5,151.1 87.5,150.1 85.3,148.1 C83.1,146.1 82,143.3 82,139.6 Z M108.9,136.2 L108.9,129.4 L105,129.3 C101.3,129.2 97.7,129.5 94.1,130.2 C91.8,130.6 89.6,131.7 88,133.3 C86.6,135 85.9,137.2 86,139.5 C85.8,141.8 86.7,144.1 88.4,145.8 C90,147.2 92.3,148 95.2,148 C97.9,148.1 100.5,147.4 102.8,146.1 C104.7,145 106.3,143.4 107.4,141.5 C108.3,139.9 108.8,138.1 108.9,136.2 Z" id="Shape"></path>
            <path d="M140.4,110.2 C142.8,110.2 145.1,110.6 147.4,111.3 C149.5,112 151.4,113 153.1,114.4 L151.4,117 C148.3,114.6 144.4,113.3 140.4,113.4 C135.6,113.4 131.9,115 129.4,118.1 C126.9,121.2 125.6,125.4 125.6,130.5 C125.6,135.6 126.9,139.7 129.4,142.9 C131.9,146.1 135.5,147.7 140.3,147.7 C144.3,147.7 148.2,146.4 151.4,144.1 L153,146.7 C149.3,149.5 144.9,151 140.3,151 C136.7,151.1 133.1,150.2 130.1,148.2 C127.4,146.4 125.3,143.8 124,140.8 C122.6,137.5 121.9,134 122,130.5 C122,124.3 123.6,119.4 126.9,115.7 C130,112 134.5,110.2 140.4,110.2 Z" id="Shape"></path>
            <path d="M168.4,111.3 L179.3,111.3 L179.3,114.3 L168.4,114.3 L168.4,140.9 C168.4,143.3 169,145 170.1,146.1 C171.3,147.3 173,147.9 174.7,147.8 C176.1,147.8 177.5,147.6 178.9,147.2 L179.5,150.1 C177.8,150.8 175.9,151.1 174.1,151.1 C171.5,151.2 169,150.3 167.1,148.5 C165.4,146.8 164.5,144.4 164.5,141.2 L164.5,114.3 L157.2,114.3 L157.2,111.7 L164.5,111.2 L164.5,101 L168.4,99.6 L168.4,111.3 L168.4,111.3 Z" id="Shape"></path>
        </g>
    </g>
</svg>