<?xml version="1.0" encoding="utf-8"?> <!-- Generator: Adobe Illustrator 16.0.4, SVG Export Plug-In . SVG Version: 6.00 Build 0) --> <!DOCTYPE svg PUBLIC "-//W3C//DTD SVG 1.1//EN" "http://www.w3.org/Graphics/SVG/1.1/DTD/svg11.dtd"> <svg version="1.1" id="Layer_1" xmlns="http://www.w3.org/2000/svg" xmlns:xlink="http://www.w3.org/1999/xlink" x="0px" y="0px" width="177px" height="188px" viewBox="0 0 177 188" enable-background="new 0 0 177 188" xml:space="preserve"> <title>marionette</title> <desc>Created with Sketch.</desc> <g> <g> <g id="Group" transform="translate(13) translate(.344)"> <path id="Shape" fill="#939598" d="M87.743,82.508l16.89-39.95c0.2-0.48,0.76-0.707,1.244-0.506 c0.482,0.2,0.713,0.752,0.51,1.233L91.502,78.487L87.743,82.508L87.743,82.508z"/> <path id="Shape_1_" fill="#931A2B" d="M102.313,62.177c0,0-8.083,10.593-13.788,16.713c-5.71,6.122-14.03,15.774-14.03,15.774 v21.58c0.06-0.004,0.115-0.016,0.175-0.016c1.38,0,2.498,1.105,2.498,2.47c0,1.366-1.119,2.473-2.498,2.473 c-0.06,0-0.115-0.014-0.175-0.019v21.772c0,0,10.478-7.12,18.068-14.008c8.558-7.767,18.069-19.895,18.069-19.895l-8.319-46.843 V62.177z"/> <path id="Shape_2_" fill="#A7A9AC" d="M68.562,22.69l-0.078,8.413l-30.533,12.23l0.537-7.475l30.075-13.17L68.562,22.69z"/> <path id="Shape_3_" fill="#BCBEC0" d="M110.98,35.564l0.595,7.472L80.888,31.052l-0.145-8.41L110.98,35.564L110.98,35.564z M74.64,20.03l0.032,8.593L30.007,11.178l0.927-9.832L74.64,20.03z M30.934,1.346l-0.927,9.832l-5.923,3.495l1.024-9.6 L30.934,1.346z"/> <path id="Shape_4_" fill="#A7A9AC" d="M118.147,0.98l1,9.826L74.672,28.623l-0.033-8.594L118.147,0.98L118.147,0.98z"/> <path id="Shape_5_" fill="#BCBEC0" d="M124.017,4.66l1.099,9.593l-5.968-3.447l-1-9.825L124.017,4.66L124.017,4.66z"/> <path id="Shape_6_" fill="#808285" d="M44.03,45.052l-6.08-1.718l30.534-12.23l-44.4-16.43l5.923-3.496l44.665,17.445 l44.476-17.817l5.968,3.447l-44.228,16.8l30.687,11.983l-6.065,1.768l-30.81-11.4L44.03,45.05V45.052z"/> <path id="Shape_7_" fill="#939598" d="M24.566,69.727c-0.032,0-0.064,0-0.095-0.005c-0.522-0.052-0.904-0.51-0.852-1.03 l5.443-54.31c0.052-0.515,0.506-0.895,1.04-0.843c0.522,0.05,0.904,0.512,0.852,1.028l-5.442,54.31 c-0.05,0.486-0.46,0.85-0.944,0.85H24.566z M122.435,69.727c-0.497,0-0.918-0.386-0.947-0.885l-3.29-54.683 c-0.032-0.52,0.367-0.967,0.892-0.998c0.537-0.035,0.976,0.364,1.008,0.884l3.287,54.68c0.033,0.52-0.365,0.966-0.89,0.998 C122.474,69.726,122.455,69.726,122.435,69.727L122.435,69.727z M58.9,80.656l-15.745-37.12c-0.203-0.48,0.025-1.034,0.507-1.235 c0.486-0.2,1.043,0.026,1.246,0.505l17.476,41.2L58.9,80.656L58.9,80.656z"/> <path id="Shape_8_" fill="#A81E2C" d="M72.176,118.7c0-1.306,1.024-2.364,2.32-2.455v-21.58c0,0-8.323-9.653-14.03-15.775 c-5.706-6.12-13.79-16.713-13.79-16.713l-8.32,46.848c0,0,9.51,12.127,18.068,19.894c7.59,6.888,18.07,14.007,18.07,14.007 v-21.773C73.201,121.062,72.176,120.003,72.176,118.7L72.176,118.7z"/> <path id="Shape_9_" fill="#939598" d="M74.67,120.111c-0.23,0-0.464-0.082-0.646-0.25l-32.77-30.127l-0.01-2.578l33.42,30.72 L107.66,86.79l0.133,2.472L75.325,119.85c-0.184,0.176-0.42,0.262-0.657,0.262H74.67z"/> <path id="Shape_10_" fill="#CE2227" d="M143.211,68.768l-40.897-6.59c0,0,3.804,21.657,3.804,57.91 c0,36.257-4.993,60.975-4.993,60.975l41.373-4.474c0,0,5.229-19.78,5.229-53.914c-0.002-34.133-4.518-53.908-4.518-53.908 L143.211,68.768z M124.306,164.348c-1.116,0-2.021-0.894-2.021-2c0-1.102,0.904-2,2.021-2c1.117,0,2.02,0.898,2.02,2 C126.326,163.452,125.424,164.348,124.306,164.348z M42.872,120.087c0-36.253,3.804-57.91,3.804-57.91L5.78,68.767 c0,0-4.517,19.776-4.517,53.91c0,34.138,5.23,53.914,5.23,53.914l41.372,4.476C47.865,181.062,42.872,156.346,42.872,120.087 L42.872,120.087z M23.924,164.217c-1.04,0-1.885-0.837-1.885-1.867c0-1.031,0.843-1.867,1.884-1.867 c1.04,0,1.884,0.836,1.884,1.865c0,1.028-0.843,1.866-1.884,1.866L23.924,164.217z"/> <ellipse id="Oval" fill="#A51724" cx="124.306" cy="80.657" rx="1.869" ry="1.85"/> <path id="Shape_11_" fill="#939598" d="M124.308,163.29c-0.073,0-0.148-0.01-0.223-0.028c-0.51-0.119-0.826-0.623-0.705-1.134 c0.029-0.116,2.827-12.149,2.827-40.017c0-27.922-2.804-41.128-2.831-41.256c-0.109-0.51,0.217-1.01,0.729-1.12 c0.51-0.11,1.021,0.214,1.13,0.723c0.029,0.13,2.874,13.535,2.874,41.653c0,28.134-2.761,39.961-2.878,40.451 c-0.105,0.439-0.495,0.729-0.924,0.729V163.29z"/> <ellipse fill="#A51724" cx="23.924" cy="80.657" rx="2.192" ry="2.17"/> <path id="Shape_12_" fill="#939598" d="M23.922,163.29c-0.463,0-0.868-0.337-0.94-0.804c-0.023-0.156-2.388-16.012-2.388-40.866 c0-24.855,2.365-40.94,2.388-41.1c0.078-0.515,0.56-0.87,1.08-0.793c0.52,0.075,0.88,0.555,0.803,1.068 c-0.025,0.16-2.368,16.12-2.368,40.827c0,24.717,2.345,40.435,2.367,40.586c0.08,0.51-0.28,0.995-0.8,1.072 C24.016,163.284,23.968,163.29,23.922,163.29z"/> </g> </g> </g> </svg>