<?xml version="1.0" encoding="utf-8"?>
<!-- Generator: Adobe Illustrator 16.0.0, SVG Export Plug-In . SVG Version: 6.00 Build 0)  -->
<!DOCTYPE svg PUBLIC "-//W3C//DTD SVG 1.1//EN" "http://www.w3.org/Graphics/SVG/1.1/DTD/svg11.dtd">
<svg version="1.1" id="Layer_1" xmlns="http://www.w3.org/2000/svg" xmlns:xlink="http://www.w3.org/1999/xlink" x="0px" y="0px"
	 width="1000px" height="1000px" viewBox="0 0 1000 1000" enable-background="new 0 0 1000 1000" xml:space="preserve">
<path fill="#FFCA73" d="M337.03,27.895C76.357,117.9-62.002,402.186,28.005,662.865c90.007,260.677,374.296,399.032,634.97,309.026
	L337.03,27.895z"/>
<path fill="#D67B03" d="M337.025,27.896c260.673-90.006,544.962,48.347,634.97,309.025
	c90.007,260.677-48.351,544.965-309.025,634.971L337.025,27.896L337.025,27.896z"/>
<path fill="#F7B64B" d="M663.277,971.786c-173.234,59.815-386.635-103.017-476.642-363.694
	c-90.008-260.679-22.833-520.385,150.4-580.199L663.277,971.786z"/>
<path fill="#EA9924" d="M662.672,971.995c173.236-59.814,240.706-319.626,150.699-580.304
	C723.363,131.012,510.259-31.918,337.025,27.896L662.672,971.995z"/>
</svg>
