<?xml version="1.0" encoding="utf-8"?>
<!-- Generator: Adobe Illustrator 16.0.0, SVG Export Plug-In . SVG Version: 6.00 Build 0)  -->
<!DOCTYPE svg PUBLIC "-//W3C//DTD SVG 1.1//EN" "http://www.w3.org/Graphics/SVG/1.1/DTD/svg11.dtd">
<svg version="1.1" id="Layer_1" xmlns="http://www.w3.org/2000/svg" xmlns:xlink="http://www.w3.org/1999/xlink" x="0px" y="0px"
	 width="1000px" height="1000px" viewBox="0 0 1000 1000" enable-background="new 0 0 1000 1000" xml:space="preserve">
<path fill="#E97293" d="M195.632,212.734c0,0-11.328,24.148-12.108,29.083L19.669,629.859c0,0,0.482,3.831,3.396,8.737
	c4.437,7.472,355.828,296.693,360.011,300.876c4.183,4.184,40.747-28.249,45.274-29.688c4.522-1.436,411.738-48.976,417.018-50.376
	c6.055-1.601,13.917-7.376,15.155-18.443c1.157-10.324,120.291-453.821,122.931-461.731c2.636-7.906-2.092-13.111-3.192-14.064
	c-1.1-0.952-340.358-340.358-343.211-343.211s-9.875-4.544-15.498-2.487c-5.637,2.053-399.893,172.68-404.35,173.641
	C212.749,194.069,198.698,210.172,195.632,212.734z"/>
<path fill="#D3547B" d="M633.672,19.842l222.142,832.626c0,0,5.306-6.22,6.984-13.342c1.683-7.111,121.899-458.979,123.047-462.736
	c1.14-3.758,0.592-9.045-3.917-13.521C977.404,358.407,648.166,29.107,646.4,27.343C643.131,24.072,636.294,20.228,633.672,19.842z"
	/>
<path fill="#BF4C76" d="M853.309,855.111L21.208,634.904c0,0,2.87,6.479,5.94,9.601c3.064,3.129,334.401,334.375,336.832,336.807
	c2.427,2.426,5.339,4.958,13.132,3.045c9.812-2.401,462.862-122.096,462.862-122.096S846.69,861.008,853.309,855.111z"/>
<path fill="#FFBED0" d="M617.163,19.284c0,0-445.336,114.224-457.43,117.342c-19.14,4.927-22.987,22.16-22.987,22.16
	S21.886,607.133,20.008,615.692c-2.014,9.162-0.218,14.618-0.218,14.618L630.952,19.148
	C632.91,19.679,625.913,17.353,617.163,19.284z"/>
</svg>
