<?xml version="1.0" encoding="utf-8"?>
<!-- Generator: Adobe Illustrator 16.0.0, SVG Export Plug-In . SVG Version: 6.00 Build 0)  -->
<!DOCTYPE svg PUBLIC "-//W3C//DTD SVG 1.1//EN" "http://www.w3.org/Graphics/SVG/1.1/DTD/svg11.dtd">
<svg version="1.1" id="Layer_1" xmlns="http://www.w3.org/2000/svg" xmlns:xlink="http://www.w3.org/1999/xlink" x="0px" y="0px"
	 width="1000px" height="1000px" viewBox="0 0 1000 1000" enable-background="new 0 0 1000 1000" xml:space="preserve">
<path fill="#CCD0FF" d="M406.713,417.597c-2.084,1.662-329.863,260.809-332.814,263.144l-19.202,15.986c0,0-2.618-6.696-1.22-11.902
	c1.071-3.981,3.344-14.33,3.344-14.33c0.252-2.284,82.286-345.443,83.093-349.051c0.967-4.318,4.233-9.372,5.705-10.648
	c1.461-1.275,341.076-297.034,343.009-298.716c0,0,5.443-4.916,9.486-8.135c5.961-4.747,13.45-5.691,13.45-5.691l-6.321,25.292
	c0,0-91.442,379.71-92.728,385.044l-1.533,5.391L406.713,417.597"/>
<path fill="#696CB4" d="M417.736,418.42c0,0,447.702,297.228,451.25,299.81l11.486,8.56c0,0-1.188,2.252-4.728,5.051
	c-1.137,0.9-4.932,3.909-4.932,3.909c-2.784,2.047-348.217,255.936-352.413,258.8c-11.198,7.649-23.05,4.101-28.41,0.293
	c-3.425-2.433-424.04-283.974-426.385-285.655c-6.755-4.835-9.033-12.823-9.033-12.823l7.026-5.891
	c0,0,341.832-270.339,343.283-271.487l6.101-5.005L417.736,418.42z"/>
<path fill="#8384E3" d="M412.792,407.448c0.191-0.802,96.128-400.162,96.776-401.428l1.995-7.767c0,0,4.938-0.213,8.951,0.383
	c4.341,0.646,8.872,3.49,8.872,3.49s400.791,269.199,406.675,273.371c10.776,7.638,11.203,19.243,10.767,21.696
	c-0.089,0.494-61.073,408.958-61.649,412.795c0,0-0.468,4.384-1.096,7.29c-1.259,5.838-3.61,9.511-3.61,9.511l-10.972-8.169
	c-2.264-1.718-447.321-297.248-452.387-300.514l-6.132-4.125L412.792,407.448z"/>
</svg>
